# xmcd
#
# Track frame offsets: 
#        150
#        20794
#        32881
#        52729
#        68133
#        81705
#        107132
#        124896
#        137946
#        152001
#        164568
#        179418
#        192503
#        205330
#        220966
#        233653
#        265305
#        274824
#        288345
#
# Disc length: 4156 seconds
#
# Revision: 2
# Processed by: cddbd v1.5.2PL0 Copyright (c) Steve Scherf et al.
# Submitted via: ExactAudioCopyFreeDBPlugin 1.0
#
DISCID=2c103a13
DTITLE=Various Artist - Eccentric Soul:  A Red, Black and Green Product
DTITLE=ion [Numero Group #041]
DYEAR=2012
DGENRE=Soul
TTITLE0=Father's Children - I Really, Really Love You
TTITLE1=The Summits - Sleepwalking
TTITLE2=The Exceptions featuring Mark Greene - We're in Love
TTITLE3=Skip Mahoaney and The Casuals - Town Called Nowhere
TTITLE4=The Summits - It Takes Two
TTITLE5=The Exceptions featuring Mark Greene - It Must Be Love
TTITLE6=Dyson's Faces - Don't Worry About the Joneses
TTITLE7=Skip Mahoaney and The Casuals - We Share Love
TTITLE8=East Coast Connection - Generation
TTITLE9=Promise - I'm Not Ready for Love
TTITLE10=Father's Children - Phoney People
TTITLE11=East Coast Connection - Summer in the Parks
TTITLE12=Dyson's Faces - We're Two Fools in Love
TTITLE13=The Summits - Let's Do it Over
TTITLE14=The Exceptions featuring Mark Greene - Day By Day
TTITLE15=Skip Mahoaney and The Casuals - I Need Your Love
TTITLE16=The Summits - I'll Never Say No
TTITLE17=Skip Mahoaney and The Casuals - Seems Like (The Love We Had is 
TTITLE17=Dead and Gone)
TTITLE18=Father's Children - Linda Movement
EXTD=
EXTT0=
EXTT1=
EXTT2=
EXTT3=
EXTT4=
EXTT5=
EXTT6=
EXTT7=
EXTT8=
EXTT9=
EXTT10=
EXTT11=
EXTT12=
EXTT13=
EXTT14=
EXTT15=
EXTT16=
EXTT17=
EXTT18=
PLAYORDER=
